<?xml version="1.0" encoding="utf-8"?>
<!-- Generator: Adobe Illustrator 24.1.1, SVG Export Plug-In . SVG Version: 6.00 Build 0)  -->
<svg version="1.1" id="Capa_1" xmlns="http://www.w3.org/2000/svg" xmlns:xlink="http://www.w3.org/1999/xlink" x="0px" y="0px"
	 viewBox="0 0 1140.4 480.4" style="enable-background:new 0 0 1140.4 480.4;" xml:space="preserve">
<style type="text/css">
	.st0{fill:#00A7E1;}
	.st1{fill:#FFFFFF;}
</style>
<g>
	<circle class="st0" cx="244.7" cy="240.2" r="115"/>
	<path class="st1" d="M318.1,187.9l-21.5,20.5c-14.6-15.5-31.1-23.2-49.4-23.2c-15.4,0-28.5,5.3-39,15.8
		c-10.6,10.6-15.9,23.6-15.9,39.1c0,10.8,2.3,20.4,7,28.7c4.7,8.4,11.3,14.9,19.9,19.7c8.6,4.8,18.1,7.2,28.6,7.2
		c8.9,0,17.1-1.7,24.5-5c7.4-3.3,15.5-9.4,24.4-18.2l20.9,21.8c-11.9,11.7-23.2,19.7-33.9,24.2c-10.6,4.5-22.7,6.8-36.4,6.8
		c-25.1,0-45.7-8-61.7-23.9c-16-15.9-24-36.4-24-61.3c0-16.1,3.6-30.4,10.9-43c7.3-12.5,17.7-22.6,31.3-30.2
		c13.6-7.6,28.2-11.4,43.9-11.4c13.3,0,26.2,2.8,38.5,8.4C298.5,169.5,309.1,177.5,318.1,187.9z"/>
	<path class="st1" d="M389.9,155.4h15.4v171.3h-15.4V155.4z"/>
	<g>
		<g>
			<path class="st1" d="M443.3,155.3c4.2,0,7.7,1.5,10.7,4.4c3,3,4.4,6.5,4.4,10.7c0,4.1-1.5,7.6-4.4,10.6c-3,3-6.5,4.4-10.7,4.4
				c-4.1,0-7.6-1.5-10.6-4.4c-3-3-4.4-6.5-4.4-10.6c0-4.2,1.5-7.8,4.4-10.7C435.7,156.8,439.3,155.3,443.3,155.3z"/>
			<rect x="436.1" y="200.6" class="st1" width="15.4" height="126.1"/>
		</g>
	</g>
	<path class="st1" d="M481.7,200.6H497v24.3c5.4-7.8,10.9-13.5,16.5-17.1c7.8-4.8,16-7.2,24.5-7.2c5.8,0,11.3,1.2,16.5,3.5
		c5.2,2.3,9.5,5.4,12.8,9.3c3.3,3.9,6.2,9.4,8.6,16.6c5.1-9.6,11.5-16.9,19.2-21.9c7.7-5,15.9-7.5,24.8-7.5c8.3,0,15.6,2.1,21.9,6.4
		c6.3,4.3,11,10.2,14.1,17.9c3.1,7.6,4.6,19.1,4.6,34.4v67.4h-15.7v-67.4c0-13.1-0.9-22.1-2.7-27c-1.8-4.9-4.9-8.9-9.4-11.9
		c-4.4-3-9.7-4.5-15.8-4.5c-7.4,0-14.3,2.2-20.4,6.7c-6.2,4.5-10.7,10.5-13.5,18c-2.8,7.5-4.3,20-4.3,37.6v48.5h-15.4v-63.2
		c0-14.8-0.9-24.8-2.7-30.1c-1.8-5.3-4.9-9.5-9.4-12.7c-4.5-3.2-9.8-4.8-15.9-4.8c-7.1,0-13.8,2.2-19.9,6.6
		c-6.2,4.4-10.8,10.3-13.7,17.7c-3,7.4-4.4,18.8-4.4,34.1v52.4h-15.4V200.6z"/>
	<path class="st1" d="M835.2,200.6h15.7v15.3c4.7-7.2,7.7-9.4,11.4-12.1c5.1-3.7,14.1-3.2,19.7-3.2c4.2,0,7.5,1.6,12.3,4.4
		l-6.7,11.3c-3.2-1.5-5.9-2.2-8.1-2.2c-5.1,0-10.1,2.2-14.8,6.6c-4.8,4.4-8.4,11.3-10.9,20.6c-1.9,7.1-2.9,21.6-2.9,43.3v42h-15.7
		V200.6z"/>
	<path class="st1" d="M916.8,155.3c4.2,0,7.7,1.5,10.7,4.4c2.9,3,4.4,6.5,4.4,10.7c0,4.1-1.5,7.6-4.4,10.6c-2.9,3-6.5,4.4-10.7,4.4
		c-4.1,0-7.6-1.5-10.5-4.4c-2.9-3-4.4-6.5-4.4-10.6c0-4.2,1.5-7.8,4.4-10.7C909.2,156.8,912.7,155.3,916.8,155.3z M909.2,200.6h15.4
		v126.1h-15.4V200.6z"/>
	<path class="st1" d="M1011.1,216.6l-9.9,10.2c-8.2-8-16.3-12-24.1-12c-5,0-9.3,1.6-12.8,4.9c-3.6,3.3-5.3,7.1-5.3,11.5
		c0,3.9,1.5,7.6,4.4,11.1c2.9,3.6,9.1,7.8,18.5,12.6c11.5,5.9,19.2,11.6,23.3,17.1c4,5.6,6.1,11.8,6.1,18.8
		c0,9.8-3.5,18.1-10.3,24.9c-6.9,6.8-15.5,10.2-25.9,10.2c-6.9,0-13.5-1.5-19.8-4.5c-6.3-3-11.5-7.1-15.6-12.4l9.7-11
		c7.9,8.9,16.2,13.3,25,13.3c6.2,0,11.4-2,15.8-5.9c4.3-4,6.5-8.6,6.5-14c0-4.4-1.4-8.3-4.3-11.8c-2.9-3.4-9.3-7.6-19.4-12.7
		c-10.8-5.6-18.1-11.1-22-16.5c-3.9-5.4-5.8-11.6-5.8-18.6c0-9.1,3.1-16.6,9.3-22.6c6.2-6,14-9,23.5-9
		C988.8,200.5,999.9,205.9,1011.1,216.6z"/>
	<g>
		<g>
			<path class="st1" d="M789.2,201.6l0,23.3c-11.4-15.8-29.8-23.1-50.7-23.1c-34.5,0-62.6,28-62.6,62.6s28,62.6,62.6,62.6
				c20.9,0,39.4-10.3,50.7-26.1v25.9h15.9V201.6H789.2z M738.4,313.9c-27.3,0-49.4-22.1-49.4-49.4c0-27.3,22.1-49.4,49.4-49.4
				c27.3,0,49.4,22.1,49.4,49.4C787.8,291.8,765.7,313.9,738.4,313.9z"/>
			<g>
				<g>
					<g>
						<path class="st0" d="M738.4,302.1c-0.9,0-1.5-0.7-1.5-1.5v-72.4c0-0.9,0.7-1.5,1.5-1.5c0.9,0,1.5,0.7,1.5,1.5v72.4
							C739.9,301.4,739.2,302.1,738.4,302.1z"/>
					</g>
					<g>
						<path class="st0" d="M706.9,283.7c-0.5,0-1.1-0.3-1.3-0.8c-0.4-0.7-0.2-1.7,0.6-2.1l63.1-35.5c0.7-0.4,1.7-0.2,2.1,0.6
							c0.4,0.7,0.2,1.7-0.6,2.1l-63.1,35.5C707.4,283.6,707.2,283.7,706.9,283.7z"/>
					</g>
					<g>
						<path class="st0" d="M770,283.6c0.5,0,1.1-0.3,1.3-0.8c0.4-0.7,0.2-1.7-0.6-2.1l-63.1-35.5c-0.7-0.4-1.7-0.2-2.1,0.6
							c-0.4,0.7-0.2,1.7,0.6,2.1l63.1,35.5C769.4,283.5,769.7,283.6,770,283.6z"/>
					</g>
					<g>
						<g>
							<g>
								<path class="st0" d="M738.4,245.2c-0.4,0-0.7-0.1-1-0.4l-11.9-10.4c-0.6-0.6-0.7-1.5-0.2-2.2c0.6-0.6,1.5-0.7,2.2-0.1
									l11.9,10.4c0.6,0.6,0.7,1.5,0.2,2.2C739.2,245.1,738.8,245.2,738.4,245.2z"/>
							</g>
							<g>
								<path class="st0" d="M738.4,245.2c0.4,0,0.7-0.1,1-0.4l11.9-10.4c0.6-0.6,0.7-1.5,0.2-2.2c-0.6-0.6-1.5-0.7-2.2-0.1
									l-11.9,10.4c-0.6,0.6-0.7,1.5-0.2,2.2C737.5,245.1,738,245.2,738.4,245.2z"/>
							</g>
						</g>
						<g>
							<g>
								<path class="st0" d="M722.1,254.7c-0.2,0.3-0.5,0.6-0.8,0.7l-14.9,5.4c-0.8,0.3-1.7-0.1-2-0.9c-0.3-0.8,0.1-1.7,0.9-2
									l14.9-5.4c0.8-0.3,1.7,0.1,2,0.9C722.3,253.8,722.3,254.3,722.1,254.7z"/>
							</g>
							<g>
								<path class="st0" d="M722.1,254.7c0.2-0.3,0.2-0.7,0.2-1.1l-3.3-15.5c-0.2-0.8-1-1.4-1.8-1.2c-0.8,0.2-1.4,1-1.2,1.8
									l3.3,15.5c0.2,0.8,1,1.4,1.8,1.2C721.5,255.4,721.9,255.1,722.1,254.7z"/>
							</g>
						</g>
						<g>
							<g>
								<path class="st0" d="M754.8,254.7c0.2,0.3,0.5,0.6,0.8,0.7l14.9,5.4c0.8,0.3,1.7-0.1,2-0.9c0.3-0.8-0.1-1.7-0.9-2l-14.9-5.4
									c-0.8-0.3-1.7,0.1-2,0.9C754.5,253.8,754.6,254.3,754.8,254.7z"/>
							</g>
							<g>
								<path class="st0" d="M754.8,254.7c-0.2-0.3-0.2-0.7-0.2-1.1l3.3-15.5c0.2-0.8,1-1.4,1.8-1.2c0.8,0.2,1.4,1,1.2,1.8
									l-3.3,15.5c-0.2,0.8-1,1.4-1.8,1.2C755.4,255.4,755,255.1,754.8,254.7z"/>
							</g>
						</g>
					</g>
					<g>
						<g>
							<g>
								<path class="st0" d="M738.4,283.4c-0.4,0-0.7,0.1-1,0.4l-11.9,10.4c-0.6,0.6-0.7,1.5-0.2,2.2c0.6,0.6,1.5,0.7,2.2,0.1
									l11.9-10.4c0.6-0.6,0.7-1.5,0.2-2.2C739.2,283.6,738.8,283.4,738.4,283.4z"/>
							</g>
							<g>
								<path class="st0" d="M738.4,283.4c0.4,0,0.7,0.1,1,0.4l11.9,10.4c0.6,0.6,0.7,1.5,0.2,2.2c-0.6,0.6-1.5,0.7-2.2,0.1
									l-11.9-10.4c-0.6-0.6-0.7-1.5-0.2-2.2C737.5,283.6,738,283.4,738.4,283.4z"/>
							</g>
						</g>
						<g>
							<g>
								<path class="st0" d="M722.1,273.9c-0.2-0.3-0.5-0.6-0.8-0.7l-14.9-5.4c-0.8-0.3-1.7,0.1-2,0.9c-0.3,0.8,0.1,1.7,0.9,2
									l14.9,5.4c0.8,0.3,1.7-0.1,2-0.9C722.3,274.8,722.3,274.3,722.1,273.9z"/>
							</g>
							<g>
								<path class="st0" d="M722.1,273.9c0.2,0.3,0.2,0.7,0.2,1.1l-3.3,15.5c-0.2,0.8-1,1.4-1.8,1.2c-0.8-0.2-1.4-1-1.2-1.8
									l3.3-15.5c0.2-0.8,1-1.4,1.8-1.2C721.5,273.3,721.9,273.6,722.1,273.9z"/>
							</g>
						</g>
						<g>
							<g>
								<path class="st0" d="M754.8,273.9c0.2-0.3,0.5-0.6,0.8-0.7l14.9-5.4c0.8-0.3,1.7,0.1,2,0.9c0.3,0.8-0.1,1.7-0.9,2l-14.9,5.4
									c-0.8,0.3-1.7-0.1-2-0.9C754.5,274.8,754.6,274.3,754.8,273.9z"/>
							</g>
							<g>
								<path class="st0" d="M754.8,273.9c-0.2,0.3-0.2,0.7-0.2,1.1l3.3,15.5c0.2,0.8,1,1.4,1.8,1.2c0.8-0.2,1.4-1,1.2-1.8
									l-3.3-15.5c-0.2-0.8-1-1.4-1.8-1.2C755.4,273.3,755,273.6,754.8,273.9z"/>
							</g>
						</g>
					</g>
					<g>
						<path class="st0" d="M738.4,278.4l-11.7-7v-14l11.7-7l11.7,7v14L738.4,278.4z M729.7,269.7l8.8,5.3l8.8-5.3v-10.7l-8.8-5.3
							l-8.8,5.3V269.7z"/>
					</g>
				</g>
			</g>
		</g>
	</g>
</g>
</svg>
